<svg height='100px' width='100px'  fill="#000000" xmlns="http://www.w3.org/2000/svg" xmlns:xlink="http://www.w3.org/1999/xlink" version="1.1" x="0px" y="0px" viewBox="0 0 100 100" style="enable-background:new 0 0 100 100;" xml:space="preserve"><path d="M42.89,19.33c0.198,0.228,0.476,0.345,0.756,0.345c0.232,0,0.465-0.081,0.655-0.245c0.417-0.362,0.462-0.993,0.1-1.411  l-1.004-1.158c-0.362-0.417-0.993-0.461-1.411-0.1c-0.417,0.362-0.462,0.993-0.1,1.411L42.89,19.33z"></path><path d="M61.848,18.751c0.198,0.228,0.476,0.345,0.756,0.345c0.232,0,0.465-0.081,0.655-0.245c0.417-0.362,0.462-0.993,0.1-1.411  l-1.004-1.158c-0.361-0.417-0.992-0.461-1.411-0.1c-0.417,0.362-0.462,0.993-0.1,1.411L61.848,18.751z"></path><path d="M47.083,25.861c0.119,0,0.24-0.021,0.358-0.067l1.431-0.549c0.516-0.198,0.773-0.776,0.576-1.292  c-0.197-0.516-0.778-0.774-1.292-0.576l-1.431,0.549c-0.516,0.198-0.773,0.776-0.576,1.292  C46.302,25.617,46.682,25.861,47.083,25.861z"></path><path d="M29.468,20.224c0.119,0,0.24-0.021,0.358-0.067l1.431-0.549c0.516-0.198,0.773-0.776,0.576-1.292  c-0.197-0.516-0.778-0.774-1.292-0.576L29.11,18.29c-0.516,0.198-0.773,0.776-0.576,1.292  C28.687,19.979,29.066,20.224,29.468,20.224z"></path><path d="M52.377,19.95c0.119,0,0.24-0.021,0.358-0.067l1.431-0.549c0.516-0.198,0.773-0.776,0.576-1.292  c-0.197-0.516-0.778-0.775-1.292-0.576l-1.431,0.549c-0.516,0.198-0.773,0.776-0.576,1.292C51.596,19.705,51.975,19.95,52.377,19.95  z"></path><path d="M69.635,21.851c0.119,0,0.24-0.021,0.358-0.067l1.431-0.549c0.516-0.198,0.773-0.776,0.575-1.292  c-0.198-0.515-0.776-0.773-1.292-0.575l-1.431,0.549c-0.516,0.198-0.773,0.776-0.575,1.292  C68.854,21.606,69.233,21.851,69.635,21.851z"></path><path d="M35.238,24.023l1.516,0.223c0.049,0.007,0.099,0.011,0.147,0.011c0.488,0,0.915-0.357,0.988-0.854  c0.081-0.546-0.297-1.055-0.844-1.135l-1.516-0.223c-0.545-0.082-1.055,0.297-1.135,0.844  C34.313,23.435,34.691,23.943,35.238,24.023z"></path><path d="M58.566,23.912l1.516,0.223c0.049,0.007,0.099,0.011,0.147,0.011c0.488,0,0.915-0.357,0.988-0.854  c0.081-0.546-0.297-1.055-0.844-1.135l-1.516-0.223c-0.549-0.079-1.055,0.298-1.135,0.844C57.642,23.324,58.02,23.832,58.566,23.912  z"></path><path d="M16.046,58.505c-2.941,2.754-2.487,6.24-2.462,6.412c0.072,0.491,0.493,0.855,0.989,0.855c1.246,0,2.076,0.191,2.789,0.471  v6.602c-0.958,0.311-1.822,0.88-2.489,1.667c-1.043,1.231-1.489,2.85-1.224,4.442l0.612,3.668C14.973,86.897,18.636,90,22.97,90  H77.28c4.334,0,7.997-3.103,8.708-7.377l0.612-3.669c0.265-1.591-0.181-3.21-1.224-4.441c-0.615-0.726-1.401-1.264-2.271-1.588  v-6.76c0.666-0.235,1.447-0.393,2.57-0.393c0.548,0,0.994-0.441,1-0.989c0.002-0.154-0.002-3.353-2.592-6.247  c2.687-0.635,4.695-3.048,4.695-5.927v-1.59c0-3.258-2.57-5.919-5.789-6.081v-5.95c1.222-0.31,2.317-1.006,3.121-2.022  c1.109-1.402,1.509-3.204,1.098-4.943l-0.226-0.954c-2.934-12.404-13.886-21.068-26.633-21.068H39.644  c-13.139,0-24.448,9.37-26.89,22.279c-0.323,1.706,0.127,3.452,1.235,4.789c0.844,1.018,1.991,1.703,3.257,1.973v5.898  c-3.212,0.168-5.775,2.827-5.775,6.08v1.59C11.471,55.445,13.42,57.827,16.046,58.505z M80.916,72.632H68.198  c-0.265,0-0.52,0.105-0.707,0.293l-7.677,7.677l-7.677-7.677c-0.188-0.188-0.442-0.293-0.707-0.293H19.362v-5.424  c0.979,0.456,2.184,0.859,4.096,0.859c2.464,0,3.759-0.669,4.901-1.259c1.076-0.556,2.005-1.036,3.983-1.036s2.907,0.48,3.983,1.036  c1.142,0.59,2.437,1.259,4.901,1.259c2.465,0,3.76-0.669,4.902-1.259c1.076-0.556,2.006-1.036,3.984-1.036  c1.979,0,2.909,0.48,3.986,1.036c1.143,0.59,2.438,1.259,4.904,1.259c2.465,0,3.76-0.669,4.903-1.259  c1.076-0.556,2.006-1.036,3.984-1.036c1.98,0,2.911,0.48,3.987,1.036c1.144,0.59,2.439,1.259,4.906,1.259  c2.062,0,3.302-0.468,4.323-0.967v5.493C81.04,72.6,80.978,72.614,80.916,72.632z M84.628,78.625l-0.612,3.668  C83.465,85.601,80.632,88,77.28,88H22.97c-3.352,0-6.185-2.399-6.736-5.706l-0.612-3.668c-0.168-1.011,0.115-2.039,0.777-2.82  c0.548-0.647,1.309-1.048,2.135-1.173h32.482l8.091,8.091c0.195,0.195,0.451,0.293,0.707,0.293s0.512-0.098,0.707-0.293l8.091-8.091  h13.103c0.826,0.125,1.587,0.526,2.135,1.173C84.513,76.587,84.796,77.615,84.628,78.625z M80.771,65.032  c-1.077,0.556-2.007,1.036-3.987,1.036c-1.98,0-2.911-0.48-3.988-1.036c-1.143-0.59-2.439-1.259-4.905-1.259  c-2.465,0-3.76,0.669-4.902,1.259c-1.076,0.556-2.006,1.036-3.985,1.036c-1.979,0-2.909-0.48-3.986-1.036  c-1.143-0.59-2.438-1.259-4.904-1.259c-2.465,0-3.76,0.669-4.902,1.259c-1.076,0.556-2.006,1.036-3.984,1.036  c-1.978,0-2.907-0.48-3.983-1.036c-1.142-0.59-2.437-1.259-4.901-1.259c-2.464,0-3.759,0.669-4.901,1.259  c-1.076,0.556-2.005,1.036-3.983,1.036s-2.907-0.48-3.983-1.036c-0.98-0.506-2.072-1.071-3.918-1.221  c0.089-1.184,0.634-3.399,3.297-4.9c0.096-0.054,0.169-0.129,0.239-0.206h62.292c0.035,0.038,0.057,0.085,0.1,0.118  c2.166,1.72,2.863,3.811,3.086,4.998C82.796,63.986,81.729,64.537,80.771,65.032z M19.247,44.884v-5.712H80.99v5.712H48.922  c-0.265,0-0.52,0.105-0.707,0.293l-7.677,7.677l-7.677-7.677c-0.188-0.188-0.442-0.293-0.707-0.293H19.247z M14.719,32.652  c2.264-11.966,12.747-20.651,24.925-20.651h20.707c11.815,0,21.967,8.03,24.687,19.528l0.226,0.954  c0.27,1.141,0.007,2.323-0.72,3.243c-0.728,0.919-1.817,1.447-2.989,1.447H18.464c-1.139,0-2.208-0.503-2.935-1.38  S14.507,33.771,14.719,32.652z M13.471,51.019c0-2.259,1.837-4.096,4.096-4.096h0.831c0.068,0,0.127-0.026,0.191-0.039H31.74  l8.091,8.091c0.195,0.195,0.451,0.293,0.707,0.293s0.512-0.098,0.707-0.293l8.091-8.091H81.99c0.099,0,0.189-0.03,0.279-0.056  c0.127,0.058,0.265,0.095,0.414,0.095c2.258,0,4.096,1.837,4.096,4.096v1.59c0,2.258-1.837,4.096-4.096,4.096H17.567  c-2.258,0-4.096-1.837-4.096-4.096V51.019z"></path></svg>