<svg height='100px' width='100px'  fill="#000000" xmlns="http://www.w3.org/2000/svg" xmlns:xlink="http://www.w3.org/1999/xlink" version="1.1" x="0px" y="0px" viewBox="0 0 100 100" style="enable-background:new 0 0 100 100;" xml:space="preserve"><path d="M45.213,21.398c-2.649,0-4.806,2.156-4.806,4.806s2.156,4.806,4.806,4.806s4.806-2.156,4.806-4.806  S47.862,21.398,45.213,21.398z M45.213,29.01c-1.547,0-2.806-1.259-2.806-2.806s1.259-2.806,2.806-2.806s2.806,1.259,2.806,2.806  S46.76,29.01,45.213,29.01z"></path><path d="M74.397,47.871c-2.649,0-4.806,2.156-4.806,4.806s2.156,4.806,4.806,4.806c2.65,0,4.807-2.156,4.807-4.806  S77.048,47.871,74.397,47.871z M74.397,55.483c-1.547,0-2.806-1.259-2.806-2.806s1.259-2.806,2.806-2.806  c1.548,0,2.807,1.259,2.807,2.806S75.945,55.483,74.397,55.483z"></path><path d="M41.407,69.39c-2.65,0-4.807,2.156-4.807,4.806s2.156,4.806,4.807,4.806c2.649,0,4.806-2.156,4.806-4.806  S44.057,69.39,41.407,69.39z M41.407,77.002c-1.548,0-2.807-1.259-2.807-2.806s1.259-2.806,2.807-2.806  c1.547,0,2.806,1.259,2.806,2.806S42.954,77.002,41.407,77.002z"></path><path d="M85.437,33.84c-0.152-0.337-0.479-0.563-0.848-0.586c-0.369-0.021-0.722,0.159-0.915,0.474  c-0.603,0.979-1.717,1.491-2.849,1.302c-1.526-0.253-2.562-1.702-2.309-3.228c0.226-1.355,1.387-2.333,2.765-2.333  c0.01,0,0.019-0.001,0.025,0c0.369,0,0.708-0.203,0.882-0.528c0.175-0.327,0.154-0.725-0.054-1.032  C74.684,16.89,62.303,10.312,49.019,10.312c-10.502,0-20.421,4.049-27.93,11.403c-0.282,0.275-0.375,0.691-0.239,1.061  c0.137,0.37,0.478,0.625,0.871,0.651c1.852,0.126,3.302,1.668,3.302,3.511c0,1.952-1.588,3.54-3.54,3.54  c-1.639,0-3.05-1.118-3.432-2.718c-0.092-0.383-0.399-0.677-0.786-0.75c-0.392-0.076-0.782,0.087-1.007,0.41  c-2.167,3.104-3.875,6.478-5.078,10.028c-0.085,0.251-0.066,0.526,0.051,0.764s0.324,0.419,0.576,0.504l34.095,11.547L11.807,61.81  c-0.523,0.177-0.804,0.745-0.627,1.268c5.496,16.23,20.702,27.136,37.839,27.136c7.468,0,14.758-2.081,21.081-6.017  c0.337-0.209,0.518-0.598,0.462-0.991c-0.057-0.393-0.339-0.715-0.721-0.821c-1.211-0.338-2.056-1.443-2.056-2.688  c0-1.547,1.259-2.806,2.807-2.806c1.547,0,2.806,1.259,2.811,2.724c-0.006,0.038-0.015,0.128-0.016,0.167  c-0.01,0.395,0.214,0.759,0.571,0.929c0.357,0.17,0.782,0.113,1.08-0.145c8.854-7.61,13.933-18.655,13.933-30.303  C88.971,44.559,87.781,39.033,85.437,33.84z M75.039,77.875c-0.72-1.75-2.441-2.984-4.447-2.984c-2.65,0-4.807,2.156-4.807,4.806  c0,1.455,0.67,2.799,1.752,3.691c-5.645,3.162-12.011,4.825-18.519,4.825c-15.945,0-30.13-9.938-35.611-24.834L49.339,51.21  c0.406-0.138,0.68-0.519,0.68-0.947s-0.273-0.81-0.68-0.947L13.407,37.146c0.912-2.472,2.085-4.848,3.501-7.092  c1.005,1.485,2.693,2.423,4.574,2.423c3.055,0,5.54-2.485,5.54-5.54c0-2.205-1.319-4.134-3.23-5.014  c6.958-6.212,15.848-9.612,25.227-9.612c12.106,0,23.421,5.75,30.571,15.459c-1.568,0.583-2.756,1.962-3.046,3.704  c-0.434,2.615,1.34,5.095,3.953,5.528c1.348,0.225,2.683-0.13,3.719-0.933c1.829,4.519,2.755,9.286,2.755,14.192  C86.971,60.743,82.644,70.708,75.039,77.875z"></path><path d="M71.592,30.01c0-0.938-0.365-1.819-1.028-2.481c-1.323-1.325-3.636-1.326-4.963,0c0,0,0,0,0,0  c-1.368,1.368-1.368,3.595,0,4.963c0.663,0.663,1.545,1.027,2.481,1.027c0.938,0,1.819-0.365,2.481-1.027  C71.227,31.829,71.592,30.948,71.592,30.01z M69.149,31.078c-0.57,0.57-1.564,0.57-2.135,0c-0.588-0.588-0.588-1.546,0-2.135  c0.571-0.571,1.565-0.57,2.135,0c0.285,0.285,0.442,0.664,0.442,1.067S69.435,30.792,69.149,31.078z"></path><path d="M52.91,62.264c-1.368,1.368-1.368,3.595,0,4.963c0.662,0.663,1.544,1.028,2.481,1.028c0.937,0,1.818-0.365,2.481-1.028  c1.368-1.368,1.368-3.595,0-4.963C56.547,60.938,54.234,60.938,52.91,62.264z M56.459,65.812c-0.57,0.571-1.564,0.571-2.135,0  c-0.588-0.588-0.588-1.546,0-2.135c0.285-0.285,0.664-0.442,1.067-0.442s0.782,0.157,1.067,0.442  C57.047,64.266,57.047,65.224,56.459,65.812z"></path><path d="M24.299,64.772C24.299,64.773,24.299,64.773,24.299,64.772c-1.368,1.369-1.368,3.595,0,4.964  c0.663,0.663,1.545,1.027,2.481,1.027c0.938,0,1.819-0.365,2.481-1.027c0.663-0.663,1.028-1.544,1.028-2.482  s-0.365-1.819-1.028-2.481C27.938,63.448,25.626,63.447,24.299,64.772z M27.848,68.322c-0.57,0.57-1.564,0.57-2.135,0  c-0.588-0.588-0.588-1.546,0-2.135c0.571-0.571,1.565-0.57,2.135,0c0.285,0.285,0.442,0.664,0.442,1.067  S28.133,68.037,27.848,68.322z"></path><path d="M55.296,43.702c1.368-1.369,1.368-3.595,0-4.962c-1.323-1.325-3.636-1.326-4.963,0c0,0,0,0,0,0  c-1.368,1.368-1.368,3.594,0,4.963c0.663,0.663,1.545,1.027,2.481,1.027C53.752,44.729,54.634,44.365,55.296,43.702z M51.747,40.154  c0.57-0.571,1.564-0.571,2.135,0c0.588,0.588,0.588,1.546,0,2.134c-0.57,0.57-1.564,0.57-2.135,0  C51.159,41.699,51.159,40.742,51.747,40.154z"></path></svg>