<svg height='100px' width='100px'  fill="#000000" xmlns="http://www.w3.org/2000/svg" xmlns:xlink="http://www.w3.org/1999/xlink" version="1.1" x="0px" y="0px" viewBox="0 0 100 100" style="enable-background:new 0 0 100 100;" xml:space="preserve"><path d="M30.455,89.299v-5.303h39.146v5.303c0,0.553,0.448,1,1,1H83.47c0.552,0,1-0.447,1-1v-5.303h4.588c0.552,0,1-0.447,1-1  V36.785c0-0.553-0.448-1-1-1H68.543v-6.351c2.359-0.467,4.143-2.552,4.143-5.046c0-7.769-6.32-14.089-14.089-14.089H42.521  c-7.769,0-14.089,6.32-14.089,14.089c0,2.494,1.784,4.579,4.143,5.046v6.351H10.998c-0.552,0-1,0.447-1,1v46.212  c0,0.553,0.448,1,1,1h4.588v5.303c0,0.553,0.448,1,1,1h12.869C30.007,90.299,30.455,89.852,30.455,89.299z M17.586,83.997h10.869  v4.303H17.586V83.997z M66.543,28.532v7.253H34.575v-7.253c0-0.553-0.448-1-1-1c-1.733,0-3.143-1.41-3.143-3.144  c0-6.666,5.423-12.089,12.089-12.089h16.077c6.666,0,12.089,5.423,12.089,12.089c0,1.733-1.41,3.144-3.143,3.144  C66.991,27.532,66.543,27.979,66.543,28.532z M88.058,81.997h-76.06V37.785h76.06V81.997z M71.601,83.997H82.47v4.303H71.601V83.997  z"></path><path d="M16.263,52.813v0.996c0,1.913,1.557,3.47,3.47,3.47h0.255v15.692c0,0.553,0.448,1,1,1s1-0.447,1-1V57.279h0.425  c1.913,0,3.47-1.557,3.47-3.47v-0.996c0-1.913-1.557-3.47-3.47-3.47h-0.425v-4.914c0-0.553-0.448-1-1-1s-1,0.447-1,1v4.914h-0.255  C17.82,49.343,16.263,50.9,16.263,52.813z M18.263,52.813c0-0.811,0.659-1.47,1.47-1.47h2.68c0.811,0,1.47,0.659,1.47,1.47v0.996  c0,0.811-0.659,1.47-1.47,1.47h-2.68c-0.811,0-1.47-0.659-1.47-1.47V52.813z"></path><path d="M80.252,60.844c0.552,0,1,0.447,1,1v10.989c0,0.553-0.448,1-1,1s-1-0.447-1-1V61.844  C79.252,61.292,79.7,60.844,80.252,60.844z"></path><path d="M76.02,60.844c0.552,0,1,0.447,1,1v10.989c0,0.553-0.448,1-1,1s-1-0.447-1-1V61.844  C75.02,61.292,75.467,60.844,76.02,60.844z"></path><path d="M71.786,60.844c0.552,0,1,0.447,1,1v10.989c0,0.553-0.448,1-1,1s-1-0.447-1-1V61.844  C70.786,61.292,71.234,60.844,71.786,60.844z"></path><path d="M67.553,60.844c0.552,0,1,0.447,1,1v10.989c0,0.553-0.448,1-1,1s-1-0.447-1-1V61.844  C66.553,61.292,67.001,60.844,67.553,60.844z"></path><path d="M61.488,17.001l-1.223,0.188c-0.051,0.008-0.102,0.012-0.153,0.012c-0.485,0-0.911-0.354-0.987-0.849  c-0.084-0.546,0.291-1.056,0.837-1.14l1.223-0.188c0.541-0.087,1.056,0.29,1.14,0.837C62.409,16.407,62.034,16.917,61.488,17.001z"></path><path d="M57.136,24.427c-0.198,0.237-0.482,0.359-0.768,0.359c-0.226,0-0.454-0.076-0.641-0.232  c-0.424-0.354-0.48-0.984-0.126-1.408l0.812-0.972c0.354-0.425,0.985-0.48,1.409-0.127c0.424,0.354,0.48,0.984,0.126,1.408  L57.136,24.427z"></path><path d="M49.161,23.94c-0.198,0.238-0.482,0.36-0.769,0.36c-0.226,0-0.453-0.076-0.64-0.231c-0.424-0.354-0.482-0.984-0.128-1.408  l0.81-0.973c0.354-0.426,0.984-0.482,1.409-0.129s0.482,0.984,0.128,1.408L49.161,23.94z"></path><path d="M67.366,21.625c0.542-0.066,1.044,0.33,1.107,0.88l0.146,1.279c0.062,0.548-0.331,1.044-0.88,1.106  c-0.039,0.005-0.077,0.007-0.115,0.007c-0.501,0-0.934-0.376-0.992-0.887l-0.146-1.279C66.424,22.183,66.817,21.687,67.366,21.625z"></path><path d="M63.802,21.423c-0.188,0.31-0.517,0.479-0.854,0.479c-0.177,0-0.357-0.047-0.52-0.146c-0.471-0.287-0.62-0.903-0.333-1.374  l0.671-1.1c0.288-0.473,0.903-0.623,1.375-0.333c0.471,0.287,0.62,0.903,0.333,1.374L63.802,21.423z"></path><path d="M36.658,24.045c-0.123,0-0.249-0.022-0.37-0.071l-1.155-0.461c-0.513-0.205-0.763-0.786-0.558-1.3  c0.205-0.512,0.786-0.765,1.299-0.558l1.155,0.461c0.513,0.205,0.763,0.786,0.558,1.3C37.431,23.807,37.056,24.045,36.658,24.045z"></path><path d="M43.391,21.797l-1.223,0.188c-0.051,0.008-0.102,0.012-0.153,0.012c-0.485,0-0.911-0.354-0.987-0.849  c-0.084-0.546,0.291-1.056,0.837-1.14l1.223-0.188c0.539-0.079,1.056,0.29,1.14,0.837C44.312,21.204,43.937,21.713,43.391,21.797z"></path><path d="M40.176,17.479l-1.223,0.188c-0.051,0.008-0.102,0.012-0.153,0.012c-0.485,0-0.911-0.354-0.987-0.849  c-0.084-0.546,0.291-1.056,0.837-1.14l1.223-0.188c0.542-0.081,1.056,0.29,1.14,0.837C41.097,16.885,40.722,17.395,40.176,17.479z"></path><path d="M47.732,17.584c-0.28,0-0.559-0.117-0.757-0.346l-0.828-0.957c-0.361-0.418-0.315-1.05,0.102-1.411  c0.418-0.36,1.049-0.314,1.411,0.103l0.828,0.957c0.361,0.418,0.315,1.05-0.102,1.411C48.197,17.504,47.964,17.584,47.732,17.584z"></path><path d="M54.206,17.711c-0.198,0.237-0.482,0.359-0.768,0.359c-0.226,0-0.454-0.076-0.641-0.232  c-0.424-0.354-0.48-0.984-0.126-1.408l0.812-0.972c0.354-0.425,0.985-0.481,1.409-0.127s0.48,0.984,0.126,1.408L54.206,17.711z"></path><path d="M60.574,25.953l1.223-0.188c0.543-0.085,1.056,0.29,1.14,0.837c0.084,0.546-0.291,1.056-0.837,1.14l-1.223,0.188  c-0.051,0.008-0.102,0.012-0.153,0.012c-0.485,0-0.911-0.354-0.987-0.849C59.653,26.546,60.028,26.037,60.574,25.953z"></path><path d="M40.69,24.979c0.354-0.427,0.985-0.481,1.409-0.129c0.424,0.354,0.482,0.984,0.128,1.408l-0.81,0.973  c-0.198,0.238-0.482,0.36-0.769,0.36c-0.226,0-0.453-0.076-0.64-0.231c-0.424-0.354-0.482-0.984-0.128-1.408L40.69,24.979z"></path><path d="M56.375,30.83c0.548-0.066,1.044,0.331,1.107,0.88l0.146,1.279c0.062,0.549-0.332,1.044-0.88,1.106  c-0.039,0.005-0.077,0.007-0.115,0.007c-0.501,0-0.934-0.376-0.992-0.887l-0.146-1.279C55.433,31.387,55.827,30.892,56.375,30.83z"></path><path d="M62.79,30.83c0.546-0.066,1.044,0.331,1.107,0.88l0.146,1.279c0.062,0.549-0.332,1.044-0.88,1.106  c-0.039,0.005-0.077,0.007-0.115,0.007c-0.501,0-0.934-0.376-0.992-0.887l-0.146-1.279C61.847,31.387,62.241,30.892,62.79,30.83z"></path><path d="M53.809,26.379c0.513,0.205,0.762,0.787,0.558,1.3c-0.156,0.391-0.532,0.629-0.929,0.629c-0.123,0-0.249-0.022-0.37-0.071  l-1.155-0.461c-0.513-0.205-0.762-0.787-0.558-1.3c0.204-0.512,0.784-0.765,1.299-0.558L53.809,26.379z"></path><path d="M47.352,27.712c0.539-0.083,1.056,0.29,1.14,0.837c0.084,0.546-0.291,1.056-0.837,1.14l-1.223,0.188  c-0.051,0.008-0.102,0.012-0.153,0.012c-0.485,0-0.911-0.354-0.987-0.849c-0.084-0.546,0.291-1.056,0.837-1.14L47.352,27.712z"></path><path d="M51.177,32.809l-0.858,0.892c-0.196,0.204-0.458,0.307-0.72,0.307c-0.25,0-0.5-0.093-0.693-0.279  c-0.398-0.384-0.41-1.017-0.027-1.414l0.858-0.892c0.383-0.397,1.015-0.41,1.414-0.027C51.548,31.779,51.561,32.412,51.177,32.809z"></path><path d="M42.544,31.33l0.827,0.957c0.361,0.418,0.315,1.05-0.103,1.411c-0.189,0.163-0.422,0.243-0.653,0.243  c-0.28,0-0.56-0.117-0.757-0.346l-0.827-0.957c-0.361-0.418-0.315-1.05,0.103-1.411C41.552,30.866,42.184,30.912,42.544,31.33z"></path><path d="M37.229,29.704c0.001,0,0.003,0,0.004,0c0.55,0,0.998,0.445,1,0.996l0.005,1.267c0.002,0.552-0.443,1.002-0.996,1.004  c-0.001,0-0.003,0-0.004,0c-0.55,0-0.998-0.445-1-0.996l-0.005-1.267C36.23,30.156,36.676,29.706,37.229,29.704z"></path></svg>