<svg height='100px' width='100px'  fill="#000000" xmlns="http://www.w3.org/2000/svg" xmlns:xlink="http://www.w3.org/1999/xlink" version="1.1" x="0px" y="0px" viewBox="0 0 500 500" style="enable-background:new 0 0 500 500;" xml:space="preserve"><g><path d="M299.1,265.1c-8.3-5.9-14.1-15.1-24.2-18.4c-9.3-3-19.6,0.7-24.9,8.8c-5.3-8.2-15.6-11.8-24.9-8.8   c-10,3.3-15.9,12.5-24.2,18.4c-6.5,4.6-14.9,7.3-22.8,6.5c-1.8-0.2-7.7-1.1-10.1-2.7c0.2,3,5.8,17.8,19,25.9c9.5,5.8,21,7.2,31.8,5   c10.8-2.3,24.7-10.3,31.2-20.9c6.5,10.6,20.4,18.6,31.2,20.9c10.8,2.3,22.2,0.9,31.8-5c13.2-8.1,18.9-22.9,19-25.9   c-2.4,1.7-8.2,2.6-10.1,2.7C314,272.4,305.5,269.7,299.1,265.1z"></path><circle cx="208.8" cy="212.4" r="11.8"></circle><circle cx="291.2" cy="212.4" r="11.8"></circle><path d="M364.9,265.2v-4.5c23-1.8,41.2-21.1,41.2-44.6s-18.2-42.8-41.2-44.6v-27.8c0-62.9-51.2-114.1-114.1-114.1h-0.6   c-63.5,0-115.2,51.7-115.2,115.2v26.7c-23,1.8-41.2,21.1-41.2,44.6s18.2,42.8,41.2,44.6v4.6c0,19.9,8.8,38.7,24.1,51.5l26.6,22.1   l-36.7,24.7c-16.7,11.3-26.7,30-26.7,50.2v0.8c0,28.1,19.1,52.3,46.3,58.9c26.2,6.3,53.2,9.5,80.2,9.5c25.6,0,51.2-2.9,76.1-8.6   l5.5-1.3c27.7-6.3,47-30.6,47-59c0-20.4-10.2-39.3-27.3-50.6l-36.8-24.3l27.2-22.6C356.1,304,364.9,285.2,364.9,265.2z    M386.2,216.2c0,12.5-9.3,22.8-21.2,24.5v-49C376.9,193.4,386.2,203.7,386.2,216.2z M113.8,216.2c0-12.5,9.3-22.8,21.2-24.5v49   C123.1,238.9,113.8,228.6,113.8,216.2z M263.8,405.8c-2.8,5.2-7.9,8.3-13.8,8.3c0,0,0,0,0,0c-5.9,0-11-3.1-13.8-8.3l-27.6-52.1   c6.3,2.4,13.1,3.6,19.9,3.6h42.8c6.9,0,13.7-1.3,20-3.7L263.8,405.8z M327.9,301.4l-33,27.4c-6.6,5.5-15,8.5-23.6,8.5h-42.8   c-8.6,0-17-3-23.7-8.6L172,301.4c-10.8-9-16.9-22.1-16.9-36.1v-13.1c0.1-0.6,0.1-1.2,0.1-1.8c-0.1-1.5-0.1-2.8-0.1-4.1v-65v-36.5   c0-52.5,42.7-95.2,95.2-95.2h0.6c51.9,0,94.1,42.2,94.1,94.1v37.7v65c0,1.2,0,2.6-0.1,4.1c0,0.6,0,1.2,0.1,1.8v13   C344.9,279.3,338.7,292.4,327.9,301.4z"></path><path d="M184.6,193.5c1.8,0,3.7-0.7,5.1-2c6.8-6.4,25.9-2.9,34.1-0.3c3.9,1.3,8.2-0.9,9.5-4.8c1.3-3.9-0.9-8.2-4.8-9.5   c-3.4-1.1-33.9-10.6-49,3.6c-3,2.8-3.2,7.6-0.3,10.6C180.6,192.7,182.6,193.5,184.6,193.5z"></path><path d="M276.2,191.2c8.2-2.7,27.3-6.1,34.1,0.3c1.4,1.4,3.3,2,5.1,2c2,0,4-0.8,5.5-2.4c2.8-3,2.7-7.8-0.3-10.6   c-15.1-14.1-45.6-4.7-49-3.6c-3.9,1.3-6.1,5.5-4.8,9.5C268.1,190.3,272.3,192.4,276.2,191.2z"></path></g></svg>