<svg height='100px' width='100px'  fill="#000000" xmlns="http://www.w3.org/2000/svg" xmlns:xlink="http://www.w3.org/1999/xlink" version="1.1" x="0px" y="0px" viewBox="0 0 100 100" style="enable-background:new 0 0 100 100;" xml:space="preserve"><path d="M21.5,73.6c0.1,0.1,0.3,0.1,0.4,0.1c0.4,0,0.8-0.2,0.9-0.6l5-11.6c0.2,0,0.3,0,0.5,0c2.1,0,4.1-1.1,5.2-2.9l4.3-7  c0.5,0.2,1,0.3,1.5,0.3c1.1,0,2.2-0.4,3.1-1.3l0,0c0,0,0,0,0,0l8.1-8.1c1.2-1.2,1.6-3,1-4.6l7-4.3c2-1.2,3.1-3.5,2.9-5.7l11.6-5  c0.5-0.2,0.7-0.8,0.5-1.3c-2-4.9-5-7.8-8.5-8.2c-0.9-0.1-1.9,0-2.9,0.3l-5.7,1.7l-1.1-2.5c-0.5-1.2-1.5-2.1-2.9-2.8  c-2.5-1.1-5.4-0.9-7.9,0.5l-8.6,5c-0.5-0.5-1.1-1-2-1.3c-2.7-1.1-5.7-0.9-8.3,0.5c0,0-0.1,0.1-0.1,0.1c-0.3,0.2-0.7,0.4-1,0.6  c-0.2,0.1-0.3,0.3-0.5,0.4c-0.2,0.2-0.4,0.3-0.5,0.4l0,0c0,0,0,0,0,0l-7,7c-0.2,0.2-0.3,0.4-0.5,0.6c-0.1,0.1-0.3,0.3-0.4,0.4  c-0.2,0.3-0.4,0.6-0.6,1c0,0,0,0.1-0.1,0.1c-1.4,2.5-1.7,5.6-0.5,8.3c0.4,0.8,0.8,1.5,1.3,2l-5,8.6c-1.5,2.5-1.7,5.5-0.5,7.9  c0.7,1.5,1.6,2.4,2.8,3l2.5,1.1l-1.7,5.7c-0.3,1-0.4,2-0.3,2.9C13.7,68.6,16.6,71.6,21.5,73.6z M17.3,25.7c0.2-0.2,0.4-0.4,0.6-0.6  l7-7c1.5-1.5,3.4-2.2,5.3-2.2c0.8,0,1.6,0.1,2.3,0.4c1,0.3,1.6,0.7,2,1.2l0.1,0.2c0,0.1,0,0.1,0.1,0.2l8.7,12.1l5.9,8.3  c0.7,0.9,0.6,2.2-0.3,3.1l-8,8c-0.8,0.8-2.1,0.9-3.1,0.3l-8.2-5.8l-12.2-8.8c0,0-0.1,0-0.2-0.1l-0.2-0.1c-0.5-0.4-0.9-1-1.2-2  c-0.8-2.4-0.3-4.9,1.2-6.8C17.2,25.8,17.3,25.7,17.3,25.7z M62.7,15.8c0.8-0.2,1.5-0.3,2.1-0.2c3.2,0.3,5.3,3.6,6.5,6L60.9,26  l-3.7-8.6L62.7,15.8z M45.4,12.5c1.9-1.1,4.2-1.3,6.1-0.4c1,0.5,1.6,1,1.9,1.8l5.6,13c0.8,1.9,0.1,4.1-1.6,5.1l-7,4.3L37,17.4  L45.4,12.5z M11.9,51.7c-0.9-1.9-0.7-4.2,0.4-6.1l4.9-8.4l18.8,13.4l-4.3,7c-1.1,1.7-3.3,2.4-5.1,1.6l-13-5.6  C13,53.3,12.4,52.7,11.9,51.7z M15.6,62.8l1.7-5.5l8.6,3.7l-4.4,10.3c-2.4-1.1-5.7-3.2-6-6.5C15.3,64.3,15.4,63.6,15.6,62.8z"></path><path d="M87.5,45.5L85,44.4l1.7-5.7c0.3-1,0.4-2,0.3-2.9c-0.4-3.5-3.3-6.5-8.2-8.5c-0.5-0.2-1.1,0-1.3,0.5l-5,11.6  c-2.2-0.2-4.5,0.9-5.7,2.9l-4.3,7c-1.6-0.6-3.4-0.2-4.6,1l-8.1,8.1l0,0l0,0c-1.2,1.2-1.6,3-1,4.6l-7,4.3c-2,1.2-3.1,3.5-2.9,5.7  l-11.6,5c-0.5,0.2-0.7,0.8-0.5,1.3c2,4.9,5,7.8,8.5,8.2c0.2,0,0.4,0,0.6,0c0.7,0,1.5-0.1,2.2-0.4l5.7-1.7l1.1,2.5  c0.5,1.2,1.5,2.1,3,2.8c1.1,0.5,2.2,0.7,3.4,0.7c1.5,0,3.1-0.4,4.5-1.3l8.6-5c0.5,0.5,1.1,1,2,1.3c1.1,0.5,2.3,0.7,3.5,0.7  c2.5,0,5-1,6.8-2.8l0,0l7-7l0,0c0.2-0.2,0.3-0.4,0.5-0.5c0.1-0.1,0.3-0.3,0.4-0.4c0.2-0.3,0.4-0.6,0.6-1c0,0,0-0.1,0.1-0.1  c1.4-2.5,1.7-5.6,0.5-8.3c-0.4-0.8-0.8-1.5-1.3-2l5-8.6c1.5-2.5,1.7-5.5,0.5-7.9C89.6,47,88.7,46,87.5,45.5z M79,29.6  c2.4,1.1,5.7,3.2,6,6.5c0.1,0.6,0,1.3-0.2,2.1l-1.7,5.5l-8.6-3.7L79,29.6z M37.7,85.2c-0.8,0.2-1.5,0.3-2.1,0.2  c-3.2-0.3-5.3-3.6-6.5-6L39.5,75l3.7,8.6L37.7,85.2z M54.9,88.5c-1.9,1.1-4.2,1.3-6.1,0.4c-1-0.5-1.6-1-1.9-1.8l-5.6-13  c-0.8-1.9-0.1-4.1,1.6-5.1l7-4.3l13.4,18.8L54.9,88.5z M75.5,82.9c-0.2,0.2-0.4,0.4-0.6,0.6c-0.1,0-0.1,0.1-0.2,0.2  c-2,1.5-4.5,1.9-6.8,1.2c-1-0.3-1.6-0.7-2-1.2l-0.1-0.2c0-0.1,0-0.1-0.1-0.2L57,71.1l-5.9-8.3c-0.7-0.9-0.6-2.2,0.3-3.1l8-8  c0.5-0.5,1.1-0.7,1.7-0.7c0.5,0,1,0.1,1.4,0.4l8.1,5.8l12.3,8.8c0.1,0,0.1,0.1,0.2,0.1l0.1,0.1c0.5,0.4,0.9,1,1.2,2  c0.8,2.4,0.3,4.9-1.2,6.8c0,0.1-0.1,0.1-0.1,0.2c-0.2,0.2-0.4,0.4-0.6,0.6L75.5,82.9z M88,55.4l-4.9,8.4L64.3,50.3l4.3-7  c1.1-1.7,3.3-2.4,5.1-1.6l13,5.6c0.8,0.3,1.3,0.9,1.8,1.9C89.3,51.1,89.2,53.4,88,55.4z"></path></svg>