<svg height='100px' width='100px'  fill="#000000" xmlns="http://www.w3.org/2000/svg" xmlns:xlink="http://www.w3.org/1999/xlink" version="1.1" x="0px" y="0px" viewBox="0 0 100 100" style="enable-background:new 0 0 100 100;" xml:space="preserve"><path d="M35.055,49.058l12.566,40.253c0.182,0.585,0.731,0.988,1.366,1.002c0.012,0.001,0.023,0.001,0.035,0.001  c0.624,0,1.176-0.376,1.381-0.945l14.59-40.31c4.085-0.446,7.275-3.915,7.275-8.116c0-2.566-1.185-4.937-3.205-6.479  c0.434-1.624,0.654-3.301,0.654-4.992c0-10.65-8.665-19.315-19.315-19.315c-10.651,0-19.316,8.665-19.316,19.315  c0,1.511,0.186,3.036,0.553,4.543c-2.396,1.484-3.854,4.07-3.854,6.929C27.787,45.142,30.973,48.609,35.055,49.058z M67.185,25.284  c-2.464,0.192-3.726,2.097-4.834,3.806c-1.181,1.823-2.009,2.93-3.547,2.93c-1.538,0-2.366-1.106-3.546-2.93  c-1.167-1.802-2.488-3.843-5.225-3.843c-2.738,0-4.061,2.041-5.228,3.843c-1.181,1.822-2.01,2.93-3.549,2.93  s-2.368-1.107-3.549-2.93c-0.995-1.536-2.111-3.234-4.112-3.705c1.844-7.578,8.671-13.229,16.808-13.229  C58.505,12.156,65.305,17.757,67.185,25.284z M64.102,47.11c-1.733,0-3.399-0.743-4.57-2.039c-0.304-0.336-0.797-0.425-1.201-0.218  c-2.484,1.283-5.151,1.934-7.928,1.934c-2.937,0-5.845-0.756-8.412-2.186c-0.153-0.086-0.321-0.127-0.486-0.127  c-0.292,0-0.579,0.128-0.775,0.367c-1.178,1.441-2.919,2.269-4.776,2.269c-3.4,0-6.167-2.767-6.167-6.167  c0-2.367,1.326-4.487,3.46-5.534c0.435-0.213,0.654-0.707,0.521-1.173c-0.452-1.578-0.681-3.182-0.681-4.765  c0-0.716,0.057-1.417,0.142-2.111c1.087,0.313,1.826,1.316,2.798,2.816c1.167,1.802,2.49,3.843,5.228,3.843s4.061-2.041,5.228-3.843  c1.181-1.823,2.009-2.93,3.549-2.93c1.538,0,2.366,1.106,3.546,2.93c1.167,1.802,2.488,3.843,5.225,3.843s4.059-2.041,5.226-3.843  c1.176-1.815,2.003-2.919,3.529-2.928c0.094,0.73,0.159,1.468,0.159,2.223c0,1.738-0.258,3.457-0.768,5.109  c-0.133,0.433,0.04,0.9,0.423,1.142c1.813,1.14,2.896,3.092,2.896,5.221C70.269,44.344,67.502,47.11,64.102,47.11z M37.137,49.015  c1.735-0.253,3.34-1.046,4.586-2.293c2.686,1.354,5.669,2.065,8.68,2.065c2.854,0,5.604-0.615,8.186-1.83  c1.199,1.1,2.7,1.809,4.296,2.052L49.06,87.207L37.137,49.015z"></path></svg>