<svg height='100px' width='100px'  fill="#000000" xmlns="http://www.w3.org/2000/svg" xmlns:xlink="http://www.w3.org/1999/xlink" version="1.1" x="0px" y="0px" viewBox="0 0 100 100" style="enable-background:new 0 0 100 100;" xml:space="preserve"><path d="M49.9,86.5c20.3,0,36.8-16.5,36.8-36.8S70.2,12.8,49.9,12.8S13.1,29.3,13.1,49.6S29.6,86.5,49.9,86.5z M49.9,14.8  c19.2,0,34.8,15.6,34.8,34.8c0,19.2-15.6,34.8-34.8,34.8c-19.2,0-34.8-15.6-34.8-34.8C15.1,30.4,30.7,14.8,49.9,14.8z"></path><path d="M31.5,75c1.2,0.3,2.3,0.5,3.2,1c0.8,0.5,1.6,1.3,2.4,2.2c1.2,1.3,2.5,2.7,4.3,3.2c0.5,0.1,0.9,0.2,1.4,0.2  c1.3,0,2.6-0.4,3.8-0.8c1.2-0.4,2.3-0.7,3.4-0.7c1,0,2.2,0.4,3.3,0.7c1.7,0.5,3.5,1.1,5.2,0.6c1.8-0.5,3.1-1.9,4.3-3.2  c0.8-0.9,1.6-1.7,2.4-2.2c0.9-0.5,2-0.8,3.2-1c1.8-0.4,3.6-0.8,4.9-2.1s1.7-3.1,2.1-4.9c0.3-1.2,0.5-2.3,1-3.2  c0.5-0.8,1.3-1.6,2.2-2.4c1.3-1.2,2.7-2.5,3.2-4.3c0.5-1.7-0.1-3.5-0.6-5.2c-0.4-1.2-0.7-2.3-0.7-3.4c0-1,0.4-2.2,0.7-3.3  c0.5-1.7,1.1-3.5,0.6-5.2c-0.5-1.8-1.9-3.1-3.2-4.3c-0.9-0.8-1.7-1.6-2.2-2.4c-0.5-0.9-0.8-2-1-3.2c-0.4-1.8-0.8-3.6-2.1-4.9  s-3.1-1.7-4.9-2.1c-1.2-0.3-2.3-0.5-3.2-1c-0.8-0.5-1.6-1.3-2.4-2.2c-1.2-1.3-2.5-2.7-4.3-3.2c-1.7-0.5-3.5,0.1-5.2,0.6  c-1.2,0.4-2.3,0.7-3.3,0.7c-1,0-2.2-0.4-3.4-0.7c-1.7-0.5-3.5-1.1-5.2-0.6c-1.8,0.5-3.1,1.9-4.3,3.2c-0.8,0.9-1.6,1.7-2.4,2.2  c-0.9,0.5-2,0.8-3.2,1c-1.8,0.4-3.6,0.8-4.9,2.1s-1.7,3.1-2.1,4.9c-0.3,1.2-0.5,2.3-1,3.2c-0.5,0.8-1.3,1.6-2.2,2.4  c-1.3,1.2-2.7,2.5-3.2,4.3c-0.5,1.7,0.1,3.5,0.6,5.2c0.4,1.2,0.7,2.3,0.7,3.3s-0.4,2.2-0.7,3.4c-0.5,1.7-1.1,3.5-0.6,5.2  c0.5,1.8,1.9,3.1,3.2,4.3c0.9,0.8,1.7,1.6,2.2,2.4c0.5,0.9,0.8,2,1,3.2c0.4,1.8,0.8,3.6,2.1,4.9S29.7,74.6,31.5,75z M25.3,63.9  c-0.6-1.1-1.6-2-2.6-2.9c-1.2-1.1-2.3-2.1-2.6-3.3c-0.3-1.2,0.1-2.6,0.6-4.1c0.4-1.3,0.8-2.6,0.8-3.9c0-1.3-0.4-2.7-0.8-3.9  c-0.5-1.5-0.9-2.9-0.6-4.1c0.3-1.2,1.4-2.2,2.6-3.3c1-0.9,2-1.8,2.6-2.9c0.7-1.1,1-2.5,1.2-3.7c0.3-1.5,0.7-3,1.6-3.9  s2.3-1.2,3.9-1.5c1.3-0.3,2.6-0.6,3.8-1.2c1.1-0.6,2-1.6,2.9-2.6c1.1-1.2,2.1-2.3,3.3-2.6c0.3-0.1,0.6-0.1,0.8-0.1  c1,0,2.1,0.3,3.2,0.7c1.3,0.4,2.6,0.8,3.9,0.8c1.3,0,2.7-0.4,3.9-0.8c1.5-0.5,2.9-0.9,4.1-0.6c1.2,0.3,2.2,1.4,3.3,2.6  c0.9,1,1.8,2,2.9,2.6c1.1,0.7,2.5,1,3.7,1.2c1.5,0.3,3,0.7,3.9,1.6s1.2,2.3,1.5,3.9c0.3,1.3,0.6,2.6,1.2,3.8c0.6,1.1,1.6,2,2.6,2.9  c1.2,1.1,2.3,2.1,2.6,3.3c0.3,1.2-0.1,2.6-0.6,4.1c-0.4,1.3-0.8,2.6-0.8,3.9c0,1.3,0.4,2.7,0.8,3.9c0.5,1.5,0.9,2.9,0.6,4.1  c-0.3,1.2-1.4,2.2-2.6,3.3c-1,0.9-2,1.8-2.6,2.9c-0.7,1.1-1,2.5-1.2,3.7c-0.3,1.5-0.7,3-1.6,3.9c-0.9,0.9-2.3,1.2-3.9,1.6  c-1.3,0.3-2.6,0.6-3.7,1.2c-1.1,0.6-2,1.6-2.9,2.6c-1.1,1.2-2.1,2.3-3.3,2.6c-1.2,0.3-2.6-0.1-4.1-0.6c-1.3-0.4-2.6-0.8-3.9-0.8  c-1.3,0-2.7,0.4-3.9,0.8c-1.5,0.5-2.9,0.9-4.1,0.6c-1.2-0.3-2.2-1.4-3.3-2.6c-0.9-1-1.8-2-2.9-2.6c-1.1-0.7-2.5-1-3.7-1.2  c-1.5-0.3-3-0.7-3.9-1.6c-0.9-0.9-1.2-2.3-1.6-3.9C26.2,66.3,25.9,65,25.3,63.9z"></path><path d="M38.5,38.5c3.2,0,5.8-2.6,5.8-5.8S41.7,27,38.5,27s-5.8,2.6-5.8,5.8S35.3,38.5,38.5,38.5z M38.5,29c2.1,0,3.8,1.7,3.8,3.8  s-1.7,3.8-3.8,3.8s-3.8-1.7-3.8-3.8S36.4,29,38.5,29z"></path><path d="M58.5,56c0-3.2-2.6-5.8-5.8-5.8S47,52.8,47,56s2.6,5.8,5.8,5.8S58.5,59.2,58.5,56z M52.8,59.8c-2.1,0-3.8-1.7-3.8-3.8  s1.7-3.8,3.8-3.8s3.8,1.7,3.8,3.8S54.8,59.8,52.8,59.8z"></path><path d="M33,65.8c3.2,0,5.8-2.6,5.8-5.8s-2.6-5.8-5.8-5.8s-5.8,2.6-5.8,5.8S29.8,65.8,33,65.8z M33,56.2c2.1,0,3.8,1.7,3.8,3.8  s-1.7,3.8-3.8,3.8s-3.8-1.7-3.8-3.8S30.9,56.2,33,56.2z"></path><path d="M45,64.8c-2.6,0-4.8,2.2-4.8,4.8s2.2,4.8,4.8,4.8s4.8-2.2,4.8-4.8S47.6,64.8,45,64.8z M45,72.3c-1.5,0-2.8-1.3-2.8-2.8  s1.3-2.8,2.8-2.8s2.8,1.3,2.8,2.8S46.5,72.3,45,72.3z"></path><path d="M59.2,63c-2.6,0-4.8,2.2-4.8,4.8s2.2,4.8,4.8,4.8s4.8-2.2,4.8-4.8S61.9,63,59.2,63z M59.2,70.6c-1.5,0-2.8-1.3-2.8-2.8  s1.3-2.8,2.8-2.8s2.8,1.3,2.8,2.8S60.8,70.6,59.2,70.6z"></path><path d="M56.5,35.5c2.6,0,4.8-2.2,4.8-4.8S59.1,26,56.5,26s-4.8,2.2-4.8,4.8S53.8,35.5,56.5,35.5z M56.5,28c1.5,0,2.8,1.3,2.8,2.8  s-1.3,2.8-2.8,2.8s-2.8-1.3-2.8-2.8S54.9,28,56.5,28z"></path><path d="M48,47.2c2.6,0,4.8-2.2,4.8-4.8s-2.2-4.8-4.8-4.8s-4.8,2.2-4.8,4.8S45.4,47.2,48,47.2z M48,39.7c1.5,0,2.8,1.3,2.8,2.8  s-1.3,2.8-2.8,2.8s-2.8-1.3-2.8-2.8S46.5,39.7,48,39.7z"></path><path d="M66.7,54.5c0,2.6,2.2,4.8,4.8,4.8s4.8-2.2,4.8-4.8s-2.2-4.8-4.8-4.8S66.7,51.9,66.7,54.5z M71.5,51.8c1.5,0,2.8,1.3,2.8,2.8  s-1.3,2.8-2.8,2.8s-2.8-1.3-2.8-2.8S70,51.8,71.5,51.8z"></path><path d="M65,47.2c2.6,0,4.7-2.1,4.7-4.7s-2.1-4.7-4.7-4.7s-4.7,2.1-4.7,4.7S62.4,47.2,65,47.2z M65,39.8c1.5,0,2.7,1.2,2.7,2.7  s-1.2,2.7-2.7,2.7s-2.7-1.2-2.7-2.7S63.5,39.8,65,39.8z"></path><path d="M34.2,45.2c0-2.6-2.1-4.7-4.7-4.7s-4.7,2.1-4.7,4.7s2.1,4.7,4.7,4.7S34.2,47.8,34.2,45.2z M26.8,45.2c0-1.5,1.2-2.7,2.7-2.7  s2.7,1.2,2.7,2.7S31,48,29.5,48S26.8,46.7,26.8,45.2z"></path></svg>