<svg height='100px' width='100px'  fill="#000000" xmlns="http://www.w3.org/2000/svg" xmlns:xlink="http://www.w3.org/1999/xlink" version="1.1" x="0px" y="0px" viewBox="0 0 100 100" style="enable-background:new 0 0 100 100;" xml:space="preserve"><path d="M69.132,89.256l4.117-64.452c0.018-0.275-0.08-0.546-0.269-0.748c-0.189-0.201-0.453-0.315-0.729-0.315h-1.474  c-0.126-3.897-3.197-7.03-6.963-7.03c-0.872,0-1.731,0.171-2.537,0.502c-1.328-4.103-5.05-6.961-9.285-6.961  c-3.341,0-6.395,1.751-8.196,4.637c-1.389-0.755-2.929-1.149-4.511-1.149c-5.326,0-9.664,4.466-9.791,10.002h-1.69  c-0.276,0-0.539,0.114-0.729,0.315c-0.189,0.2-0.286,0.471-0.27,0.746l3.972,64.452c0.032,0.527,0.47,0.938,0.998,0.938h36.357  C68.662,90.192,69.098,89.782,69.132,89.256z M36.912,42.096L36.405,25.74h5.31l0.253,16.355H36.912z M43.716,25.74h5.312v16.355  H43.97L43.716,25.74z M51.029,25.74h5.311l-0.253,16.355h-5.058V25.74z M63.651,25.74l-0.506,16.355h-5.057l0.253-16.355H63.651z   M70.013,44.096l-1.736,27.178H31.675L30,44.096H70.013z M62.375,73.273l-0.496,14.919h-4.425l0.248-14.919H62.375z M55.453,88.192  h-4.424V73.273h4.673L55.453,88.192z M49.029,88.192h-4.425l-0.248-14.919h4.674V88.192z M42.603,88.192h-4.425l-0.496-14.919h4.673  L42.603,88.192z M67.196,88.192h-3.316l0.496-14.919h3.773L67.196,88.192z M32.717,88.192l-0.919-14.919h3.883l0.496,14.919H32.717z   M28.869,25.74h5.535l0.506,16.355h-5.033L28.869,25.74z M68.766,23.74H31.495c0.125-4.434,3.567-8.002,7.791-8.002  c1.536,0,3.023,0.474,4.302,1.369c0.239,0.168,0.543,0.224,0.824,0.148c0.283-0.072,0.521-0.266,0.648-0.528  c1.349-2.762,4.005-4.477,6.933-4.477c3.706,0,6.923,2.785,7.649,6.622c0.062,0.329,0.286,0.605,0.595,0.735  c0.311,0.131,0.663,0.097,0.942-0.09c0.794-0.529,1.706-0.809,2.636-0.809C66.479,18.71,68.642,20.947,68.766,23.74z M71.186,25.74  l-1.045,16.355h-4.994l0.506-16.355H71.186z"></path><path d="M61.282,54.935c-0.118-0.361-0.431-0.625-0.808-0.68l-6.514-0.946l-2.913-5.902c-0.336-0.684-1.457-0.684-1.793,0  l-2.913,5.902l-6.513,0.946c-0.377,0.055-0.689,0.318-0.808,0.681c-0.117,0.361-0.02,0.759,0.253,1.024l4.714,4.595l-1.113,6.487  c-0.064,0.375,0.09,0.754,0.397,0.978c0.307,0.226,0.716,0.255,1.054,0.076l5.825-3.062l5.825,3.062  c0.146,0.077,0.307,0.115,0.466,0.115c0.207,0,0.413-0.064,0.588-0.191c0.308-0.224,0.462-0.603,0.397-0.978l-1.112-6.487  l4.714-4.595C61.301,55.695,61.399,55.298,61.282,54.935z M58.181,55.943l-3.639,3.548c-0.235,0.229-0.343,0.561-0.287,0.885  l0.858,5.008l-4.497-2.364c-0.293-0.154-0.639-0.154-0.932,0l-4.497,2.364l0.859-5.008c0.056-0.324-0.052-0.655-0.287-0.885  l-3.639-3.548l5.027-0.73c0.326-0.047,0.607-0.252,0.753-0.547l2.249-4.557l2.249,4.557c0.146,0.295,0.427,0.5,0.753,0.547  L58.181,55.943z"></path></svg>