<svg height='100px' width='100px'  fill="#000000" xmlns:x="http://ns.adobe.com/Extensibility/1.0/" xmlns:i="http://ns.adobe.com/AdobeIllustrator/10.0/" xmlns:graph="http://ns.adobe.com/Graphs/1.0/" xmlns="http://www.w3.org/2000/svg" xmlns:xlink="http://www.w3.org/1999/xlink" version="1.1" x="0px" y="0px" viewBox="0 0 90 90" enable-background="new 0 0 90 90" xml:space="preserve"><g><g i:extraneous="self"><path fill-rule="evenodd" clip-rule="evenodd" d="M58.469,22.875c0.402,1.367,0.694-1.075,1.853-0.464    c0.327,2.334-1.707,2.306-1.853,4.167c2.742,1.574,3.985,5.547,8.799,3.705c0.116,2.585-1.817,3.123-3.242,4.168    c-0.223,1.458,1.421,1.049,0.928,2.778c-0.983,0.715-2.064,1.332-3.242,1.852c0.811,6.38-1.521,11.116-2.779,16.67    c-4.95,8.547-16.585,15.77-30.563,14.356c-6.677-0.677-14.82-2.619-18.06-7.41c9.259-0.158,12.327-6.504,15.281-12.965    c-0.761-0.783-2.512-0.576-3.241-1.389c-0.383-1.311,0.652-1.201,0.463-2.317c-1.201-0.651-3.063-0.641-4.167-1.389    c-1.118-1.075,0.723-1.239,0.926-2.314c-2.296-1.409-5.194-2.216-7.409-3.705c0.089-1.455,0.86-2.227,2.314-2.316    c-0.818-2.222-3.177-0.109-3.704-2.314c-0.811-2.973,2.485-1.836,2.778-3.705c-0.884-1.432-3.334-1.297-4.168-2.778    c9.183-7.181,21.763,2.161,26.396,8.335c3.781-12.272,14.536-17.57,26.395-21.765c0.788-0.169,0.873,0.361,0.926,0.927    C60.244,17.343,60.391,19.916,58.469,22.875z M37.168,37.692c9.408-0.994,7.468-15.604,19.911-12.04    c-1.484-2.632,0.719-5.149,1.39-7.873C46.98,20.001,39.501,27.747,37.168,37.692z M12.625,27.505    c1.161,0.846,3.05,0.964,3.705,2.315c-0.436,1.88-3.116,1.516-3.705,3.241c0.807,1.354,3.433,0.889,4.168,2.316    c-0.391,1.461-2.388,1.317-2.778,2.778c2.625,0.925,4.466,2.634,7.409,3.241c0.104,1.382-1.71,1.575-0.463,2.779    c1.77-0.072,3.373,0.023,4.168,0.926c-0.262,0.963-1.323,1.497-0.463,2.315c1.793,0.438,1.906-1.805,3.241-0.463    c-2.312,7.721-5.86,14.207-13.43,16.672c10.852,7.364,33,5.222,39.824-4.168c2.21-6.125,6.353-10.32,5.095-19.913    c0.553-1.146,1.585-1.811,2.778-2.316c0.224-1.458-1.42-1.049-0.927-2.778c0.872-0.671,2.407-0.681,2.778-1.852    c-1.448-0.095-3.398,0.312-4.168-0.464c-0.103-0.875,0.523-1.021,0.464-1.852c-11.672-10.594-13.697,9.073-24.542,9.262    C32.125,32.114,22.129,24.563,12.625,27.505z"></path><path fill-rule="evenodd" clip-rule="evenodd" d="M50.597,31.672c3.02-0.085,4.474,1.393,6.021,2.779    c-0.155,2.468-1.904,3.344-4.631,3.241c-0.204-0.569-0.593-0.951-1.39-0.926C50.453,35.245,49.525,32.975,50.597,31.672z     M53.839,35.377c-0.16-1.075-0.3-2.17-1.853-1.853C51.771,34.975,52.389,35.592,53.839,35.377z"></path><path fill-rule="evenodd" clip-rule="evenodd" d="M84.402,23.8c2.115-7.496-0.541-14.808-1.39-19.912    c1.587-1.012,4.361,0.078,6.019,0.463c0.588,10.189,3.733,25.205-2.778,31.027c0.683,17.507-8.47,25.178-15.743,34.731    c0.659-1.005,6.111-1.688,7.871-1.854c1.96-2.672,2.315-6.945,5.094-8.797c1.518,2.763-3.09,3.383-2.314,6.946    c3.639,0.545,5.425-4.76,7.409-7.41c0.572,7.211-5.574,7.7-8.799,11.114c2.689,0.988,5.618,1.961,7.872,0    c-0.669,6.013-7.72,0.945-11.114,1.389c-4.227,0.555-5.496,3.909-7.872,6.482c2.528-0.72,4.999-3.942,7.872-2.778    c-4.164,2.157-9.444,5.173-9.725,9.725c0.509,1.962,2.542,2.397,2.316,5.096c-4.87,0.387-10.456,0.244-15.745,0    c1.355-6.65,3.7-13.32,7.41-18.524c3.161-4.438,8.103-6.564,8.335-11.113c0.189-3.716-2.557-4.949-3.242-8.799    c3.82,1.274,5.39,4.799,5.094,10.188c6.985-4.211,10.644-21.772,0-24.543c0.327-1.665,2.175-0.651,2.778,0    c0.217-1.823-0.971-2.405,0.464-3.241c1.734,1.661,0.46,6.333,3.704,6.482c2.365-10.084-2.42-17.028-12.504-16.207    c0.667-3.318,5.311-0.247,8.336-0.464c0.615-2.683,1.322-5.122-0.926-7.872c-1.796-2.198-4.641-2.167-8.799-4.167    c-3.702-1.782-6.82-5.125-8.797-6.021c-1.056-0.478-3.636,0.437-3.242-1.389c2.918-2.67,6.075,2.19,8.799,2.778    c1.143-1.595-1.363-2.744-1.39-4.63c2.358-0.834,5.498,1.194,9.261,0.463c2.986,3.832,6.755,3.316,9.262,6.021    C81.426,12.766,79.216,20.683,84.402,23.8z"></path><path fill-rule="evenodd" clip-rule="evenodd" d="M28.833-0.743c-0.87,4.069-3.254,6.625-6.946,7.872    C28.54,7.761,36.065,5.256,38.094-0.28c1.091-0.011,1.363,0.797,2.778,0.463c0.103,2.417-1.385,3.245-2.315,4.631    c4.322-1.087,9.002-6.211,13.892-3.705c-0.485,3.195-6.61,0.751-7.872,4.168c-6.267,3.149-14.575,4.256-22.69,5.557    c1.529,1.249,4.705,0.852,5.557,2.778c-1.664,1.378-7.669-2.797-11.114,0c-0.07,1.459,2.583,0.196,1.852,2.316    C2.062,13.596,5.693,31.408,5.216,46.027C4.883,56.19,4.114,64.676,8.92,71.034c4.836,6.397,11.248,10.141,20.838,10.651    c0.33-2.437-4.343-3.611-4.63-6.946c3.002,0.373,3.443,3.505,5.557,5.094c4.631,3.48,11.151,4.138,16.67,6.946    c-4.467,2.473-10.977,1.632-16.67,1.389c-9.594-0.412-19.924-2.662-29.174-0.925c-1.22-10.613,0.866-21.115,0.463-32.88    C1.6,43.456-0.688,32.681-0.805,22.411c-0.047-4.133,1.693-8.194,1.853-12.04c0.161-3.883-2.691-6.457-1.39-10.188    c2.832,2.962,3.217,9.5,2.315,14.819c1.171-3.021,4.69-4.374,6.483-6.946c1.558-2.235,0.899-6.063,4.167-6.946    c0.491,3.269-0.938,4.619-1.389,6.946c4.089-1.935,13.221-5.299,16.208-8.335C27.815-0.524,28.195-0.763,28.833-0.743z     M2.9,36.303c-0.295-1.71,0.6-4.612-0.462-5.557C1.947,32.641,1.759,34.919,2.9,36.303z"></path></g></g></svg>