<svg height='100px' width='100px'  fill="#000000" xmlns="http://www.w3.org/2000/svg" xmlns:xlink="http://www.w3.org/1999/xlink" version="1.1" x="0px" y="0px" viewBox="0 0 100 100" style="enable-background:new 0 0 100 100;" xml:space="preserve"><path d="M24.3,15.2c0.5-0.2,1.1-0.3,1.6-0.1c0.5,0.2,1,0.6,1.2,1.1c0.2,0.5,0.3,1.1,0.1,1.6c-0.2,0.5-0.6,1-1.1,1.2  c-2,1-2.9,3.4-1.9,5.5c0.5,1,1.3,1.7,2.3,2.1c0.4,0.1,0.9,0.2,1.3,0.2c0.6,0,1.2-0.1,1.8-0.4c0.5-0.2,0.7-0.8,0.5-1.3  c-0.2-0.5-0.8-0.7-1.3-0.5c-0.5,0.2-1.1,0.3-1.6,0.1c-0.5-0.2-1-0.6-1.2-1.1c-0.5-1-0.1-2.3,1-2.8c1-0.5,1.7-1.3,2.1-2.3  c0.4-1,0.3-2.1-0.2-3.1c-0.5-1-1.3-1.7-2.3-2.1c-1-0.4-2.1-0.3-3.1,0.2c-0.5,0.2-0.7,0.8-0.5,1.3C23.2,15.3,23.8,15.5,24.3,15.2z"></path><path d="M32.4,11.3c0.5-0.2,1.1-0.3,1.6-0.1c0.5,0.2,1,0.6,1.2,1.1c0.5,1,0.1,2.3-1,2.8c-1,0.5-1.7,1.3-2.1,2.3  c-0.4,1-0.3,2.1,0.2,3.1c0.5,1,1.3,1.7,2.3,2.1c0.4,0.1,0.9,0.2,1.3,0.2c0.6,0,1.2-0.1,1.8-0.4c0.5-0.2,0.7-0.8,0.5-1.3  c-0.2-0.5-0.8-0.7-1.3-0.5c-0.5,0.2-1.1,0.3-1.6,0.1c-0.5-0.2-1-0.6-1.2-1.1c-0.2-0.5-0.3-1.1-0.1-1.6c0.2-0.5,0.6-1,1.1-1.2  c1-0.5,1.7-1.3,2.1-2.3c0.4-1,0.3-2.1-0.2-3.1c-0.5-1-1.3-1.7-2.3-2.1c-1-0.4-2.1-0.3-3.1,0.2c-0.5,0.2-0.7,0.8-0.5,1.3  C31.3,11.3,31.9,11.5,32.4,11.3z"></path><path d="M36.6,88.1c0.2,0.4,0.5,0.6,0.9,0.6c0.1,0,0.3,0,0.4-0.1l47.1-23.2c0.5-0.2,0.7-0.8,0.5-1.3L62.4,17  c-0.2-0.5-0.8-0.7-1.3-0.5L13.9,39.7c-0.5,0.2-0.7,0.8-0.5,1.3L36.6,88.1z M61,18.7l22.3,45.3L38,86.3L15.7,41L61,18.7z"></path><path d="M54.8,34.8c0.1,0.2,0.3,0.4,0.6,0.5c0.1,0,0.2,0.1,0.3,0.1c0.2,0,0.3,0,0.4-0.1l7.2-3.5c0.5-0.2,0.7-0.8,0.5-1.3l-3.5-7.2  c-0.1-0.2-0.3-0.4-0.6-0.5c-0.2-0.1-0.5-0.1-0.8,0l-7.2,3.5c-0.5,0.2-0.7,0.8-0.5,1.3L54.8,34.8z M58.9,25l2.7,5.4l-5.4,2.7  l-2.7-5.4L58.9,25z"></path><path d="M44.3,40c0.1,0.2,0.3,0.4,0.6,0.5c0.1,0,0.2,0.1,0.3,0.1c0.2,0,0.3,0,0.4-0.1l7.2-3.5c0.5-0.2,0.7-0.8,0.5-1.3l-3.5-7.2  c-0.1-0.2-0.3-0.4-0.6-0.5c-0.2-0.1-0.5-0.1-0.8,0l-7.2,3.5c-0.5,0.2-0.7,0.8-0.5,1.3L44.3,40z M48.4,30.2l2.7,5.4l-5.4,2.7L43,32.8  L48.4,30.2z"></path><path d="M33.8,45.2c0.1,0.2,0.3,0.4,0.6,0.5c0.1,0,0.2,0.1,0.3,0.1c0.2,0,0.3,0,0.4-0.1l7.2-3.5c0.5-0.2,0.7-0.8,0.5-1.3l-3.5-7.2  c-0.1-0.2-0.3-0.4-0.6-0.5c-0.2-0.1-0.5-0.1-0.8,0l-7.2,3.5c-0.5,0.2-0.7,0.8-0.5,1.3L33.8,45.2z M37.9,35.3l2.7,5.4l-5.4,2.7  L32.5,38L37.9,35.3z"></path><path d="M32.3,45.9l-3.5-7.2c-0.1-0.2-0.3-0.4-0.6-0.5c-0.2-0.1-0.5-0.1-0.8,0l-7.2,3.5c-0.5,0.2-0.7,0.8-0.5,1.3l3.5,7.2  c0.1,0.2,0.3,0.4,0.6,0.5c0.1,0,0.2,0.1,0.3,0.1c0.2,0,0.3,0,0.4-0.1l7.2-3.5C32.3,47,32.5,46.4,32.3,45.9z M24.7,48.5L22,43.1  l5.4-2.7l2.7,5.4L24.7,48.5z"></path><path d="M56.4,38.2l3.5,7.2c0.2,0.4,0.5,0.6,0.9,0.6c0.1,0,0.3,0,0.4-0.1l7.2-3.5c0.5-0.2,0.7-0.8,0.5-1.3l-3.5-7.2  c-0.2-0.5-0.8-0.7-1.3-0.5l-7.2,3.5C56.4,37.1,56.2,37.7,56.4,38.2z M64,35.5l2.7,5.4l-5.4,2.7l-2.7-5.4L64,35.5z"></path><path d="M54.9,38.9c-0.2-0.5-0.8-0.7-1.3-0.5L46.4,42c-0.5,0.2-0.7,0.8-0.5,1.3l3.5,7.2c0.2,0.4,0.5,0.6,0.9,0.6  c0.1,0,0.3,0,0.4-0.1l7.2-3.5c0.5-0.2,0.7-0.8,0.5-1.3L54.9,38.9z M50.8,48.7l-2.7-5.4l5.4-2.7l2.7,5.4L50.8,48.7z"></path><path d="M43.1,43.6l-7.2,3.5c-0.5,0.2-0.7,0.8-0.5,1.3l3.5,7.2c0.2,0.4,0.5,0.6,0.9,0.6c0.1,0,0.3,0,0.4-0.1l7.2-3.5  c0.5-0.2,0.7-0.8,0.5-1.3l-3.5-7.2C44.2,43.6,43.6,43.4,43.1,43.6z M40.3,53.9l-2.7-5.4l5.4-2.7l2.7,5.4L40.3,53.9z"></path><path d="M37.5,56.4l-3.5-7.2c-0.2-0.5-0.8-0.7-1.3-0.5l-7.2,3.5c-0.5,0.2-0.7,0.8-0.5,1.3l3.5,7.2c0.2,0.4,0.5,0.6,0.9,0.6  c0.1,0,0.3,0,0.4-0.1l7.2-3.5C37.5,57.5,37.7,56.9,37.5,56.4z M29.8,59l-2.7-5.4l5.4-2.7l2.7,5.4L29.8,59z"></path><path d="M61.6,48.7l3.5,7.2c0.2,0.4,0.5,0.6,0.9,0.6c0.1,0,0.3,0,0.4-0.1l7.2-3.5c0.5-0.2,0.7-0.8,0.5-1.3l-3.5-7.2  c-0.2-0.5-0.8-0.7-1.3-0.5L62,47.3C61.5,47.6,61.3,48.2,61.6,48.7z M69.2,46l2.7,5.4l-5.4,2.7l-2.7-5.4L69.2,46z"></path><path d="M51.1,53.8l3.5,7.2c0.2,0.4,0.5,0.6,0.9,0.6c0.1,0,0.3,0,0.4-0.1l7.2-3.5c0.5-0.2,0.7-0.8,0.5-1.3l-3.5-7.2  c-0.2-0.5-0.8-0.7-1.3-0.5l-7.2,3.5C51,52.7,50.8,53.3,51.1,53.8z M58.7,51.2l2.7,5.4L56,59.3l-2.7-5.4L58.7,51.2z"></path><path d="M44.1,66.2c0.2,0.4,0.5,0.6,0.9,0.6c0.1,0,0.3,0,0.4-0.1l7.2-3.5c0.2-0.1,0.4-0.3,0.5-0.6c0.1-0.3,0.1-0.5,0-0.8l-3.5-7.2  c-0.2-0.5-0.8-0.7-1.3-0.5l-7.2,3.5c-0.5,0.2-0.7,0.8-0.5,1.3L44.1,66.2z M48.2,56.4l2.7,5.4l-5.4,2.7L42.8,59L48.2,56.4z"></path><path d="M42.6,66.9l-3.5-7.2c-0.2-0.5-0.8-0.7-1.3-0.5l-7.2,3.5c-0.5,0.2-0.7,0.8-0.5,1.3l3.5,7.2c0.2,0.4,0.5,0.6,0.9,0.6  c0.1,0,0.3,0,0.4-0.1l7.2-3.5C42.7,68,42.9,67.4,42.6,66.9z M35,69.6l-2.7-5.4l5.4-2.7l2.7,5.4L35,69.6z"></path><path d="M66.7,59.2l3.5,7.2c0.2,0.4,0.5,0.6,0.9,0.6c0.1,0,0.3,0,0.4-0.1l7.2-3.5c0.2-0.1,0.4-0.3,0.5-0.6c0.1-0.3,0.1-0.5,0-0.8  l-3.5-7.2c-0.2-0.5-0.8-0.7-1.3-0.5l-7.2,3.5C66.7,58.1,66.5,58.7,66.7,59.2z M74.4,56.6L77,62l-5.4,2.7L69,59.2L74.4,56.6z"></path><path d="M65.2,59.9c-0.2-0.5-0.8-0.7-1.3-0.5L56.7,63c-0.5,0.2-0.7,0.8-0.5,1.3l3.5,7.2c0.2,0.4,0.5,0.6,0.9,0.6  c0.1,0,0.3,0,0.4-0.1l7.2-3.5c0.5-0.2,0.7-0.8,0.5-1.3L65.2,59.9z M61.1,69.8l-2.7-5.4l5.4-2.7l2.7,5.4L61.1,69.8z"></path><path d="M54.8,65.1c-0.2-0.5-0.8-0.7-1.3-0.5l-7.2,3.5c-0.5,0.2-0.7,0.8-0.5,1.3l3.5,7.2c0.2,0.4,0.5,0.6,0.9,0.6  c0.1,0,0.3,0,0.4-0.1l7.2-3.5c0.5-0.2,0.7-0.8,0.5-1.3L54.8,65.1z M50.7,74.9L48,69.5l5.4-2.7l2.7,5.4L50.7,74.9z"></path><path d="M39.7,82.4c0.1,0,0.3,0,0.4-0.1l7.2-3.5c0.5-0.2,0.7-0.8,0.5-1.3l-3.5-7.2c-0.2-0.5-0.8-0.7-1.3-0.5l-7.2,3.5  c-0.5,0.2-0.7,0.8-0.5,1.3l3.5,7.2C39,82.2,39.4,82.4,39.7,82.4z M42.9,72l2.7,5.4l-5.4,2.7l-2.7-5.4L42.9,72z"></path></svg>