<svg height='100px' width='100px'  fill="#000000" xmlns="http://www.w3.org/2000/svg" xmlns:xlink="http://www.w3.org/1999/xlink" version="1.1" x="0px" y="0px" viewBox="0 0 100 100" style="enable-background:new 0 0 100 100;" xml:space="preserve"><path d="M71.253,10.038c-0.187-0.188-0.44-0.295-0.706-0.296c-0.001,0-0.003,0-0.004,0c-0.264,0-0.517,0.104-0.704,0.29  L9.997,69.402c-0.393,0.389-0.395,1.022-0.006,1.414l6.368,6.419c8.422,8.489,19.524,12.738,30.632,12.738  c10.991,0,21.987-4.163,30.388-12.497c8.182-8.117,12.713-18.935,12.758-30.46c0.046-11.525-4.399-22.378-12.517-30.56  L71.253,10.038z M64.525,18.121l4.727,4.764c12.69,12.792,12.608,33.523-0.183,46.215C56.277,81.79,35.546,81.708,22.854,68.918  l-4.727-4.764L64.525,18.121z M75.971,76.057c-16.108,15.98-42.213,15.875-58.191-0.229l-5.664-5.709l4.592-4.556l4.727,4.764  c6.77,6.822,15.692,10.238,24.62,10.237c8.833,0,17.671-3.345,24.423-10.043c13.574-13.468,13.661-35.469,0.194-49.043l-4.728-4.765  l4.593-4.557l5.663,5.709c7.741,7.803,11.98,18.152,11.937,29.144C88.094,58,83.772,68.315,75.971,76.057z"></path><path d="M51.295,61.271c0.004,0,0.009,0,0.013,0c0.862,0,1.674-0.334,2.285-0.941c0.615-0.61,0.957-1.424,0.96-2.291  s-0.331-1.683-0.941-2.299c-1.034-1.042-4.156-1.521-5.088-1.642c-0.312-0.041-0.614,0.064-0.834,0.281  c-0.22,0.218-0.326,0.524-0.288,0.832c0.114,0.933,0.568,4.058,1.602,5.1C49.614,60.927,50.428,61.268,51.295,61.271z   M52.191,57.147c0.234,0.236,0.362,0.55,0.361,0.883s-0.132,0.645-0.369,0.88c-0.235,0.233-0.534,0.33-0.881,0.36  c-0.333-0.001-0.646-0.132-0.88-0.368c-0.25-0.252-0.583-1.337-0.825-2.601C50.859,56.555,51.941,56.896,52.191,57.147z"></path><path d="M35.418,62.899c0.827,0,1.654-0.312,2.286-0.939c0.615-0.61,0.957-1.424,0.96-2.291s-0.331-1.683-0.942-2.3  c-1.034-1.041-4.155-1.52-5.087-1.641c-0.312-0.041-0.614,0.064-0.834,0.281c-0.22,0.218-0.326,0.524-0.288,0.832  c0.114,0.933,0.568,4.058,1.602,5.1C33.748,62.58,34.583,62.899,35.418,62.899z M36.303,58.778c0.234,0.236,0.362,0.55,0.361,0.883  s-0.132,0.645-0.368,0.879c-0.487,0.482-1.278,0.481-1.762-0.007c-0.25-0.252-0.583-1.337-0.825-2.601  C34.971,58.186,36.053,58.526,36.303,58.778z"></path><path d="M56.587,46.651c0.004,0,0.009,0,0.013,0c0.862,0,1.674-0.334,2.286-0.941c1.271-1.26,1.278-3.319,0.018-4.591  c-1.034-1.041-4.155-1.52-5.087-1.641c-0.311-0.04-0.614,0.064-0.834,0.281c-0.22,0.218-0.326,0.524-0.288,0.832  c0.114,0.933,0.567,4.058,1.602,5.1C54.906,46.307,55.72,46.648,56.587,46.651z M57.484,42.528c0.483,0.488,0.48,1.278-0.007,1.762  c-0.235,0.233-0.547,0.361-0.878,0.361c-0.002,0-0.003,0-0.005,0c-0.333-0.001-0.645-0.132-0.879-0.368  c-0.25-0.252-0.583-1.337-0.825-2.601C56.152,41.936,57.234,42.276,57.484,42.528z"></path><path d="M64.486,32.887c0.004,0,0.009,0,0.014,0c0.861,0,1.673-0.334,2.285-0.941c1.271-1.261,1.278-3.319,0.019-4.589  c-1.035-1.043-4.156-1.521-5.088-1.643c-0.309-0.041-0.614,0.064-0.834,0.281c-0.22,0.218-0.326,0.524-0.288,0.832  c0.114,0.933,0.567,4.058,1.602,5.1C62.806,32.542,63.619,32.884,64.486,32.887z M65.384,28.765c0.483,0.487,0.48,1.277-0.007,1.761  c-0.235,0.233-0.547,0.361-0.878,0.361c-0.001,0-0.003,0-0.005,0c-0.332-0.001-0.645-0.132-0.879-0.368  c-0.25-0.252-0.583-1.337-0.826-2.601C64.051,28.17,65.133,28.512,65.384,28.765z"></path><path d="M72.161,47.749c0.004,0,0.009,0,0.013,0c0.862,0,1.674-0.334,2.285-0.941c0.615-0.61,0.957-1.424,0.96-2.291  s-0.331-1.683-0.941-2.299c-1.034-1.042-4.156-1.521-5.088-1.642c-0.31-0.04-0.614,0.064-0.834,0.281  c-0.22,0.218-0.326,0.524-0.288,0.832c0.114,0.933,0.568,4.058,1.602,5.1C70.48,47.405,71.294,47.746,72.161,47.749z M73.058,43.626  c0.234,0.236,0.362,0.55,0.361,0.883s-0.132,0.645-0.369,0.88c-0.234,0.232-0.545,0.36-0.876,0.36  c-0.339-0.04-0.649-0.13-0.885-0.368c-0.25-0.252-0.583-1.337-0.825-2.601C71.726,43.033,72.808,43.374,73.058,43.626z"></path><path d="M61.825,56.448c-0.22,0.218-0.326,0.524-0.288,0.832c0.114,0.933,0.567,4.058,1.602,5.1c0.61,0.615,1.424,0.957,2.291,0.96  c0.004,0,0.009,0,0.013,0c0.862,0,1.674-0.334,2.286-0.941c1.271-1.26,1.278-3.319,0.018-4.591c-1.034-1.041-4.155-1.52-5.087-1.641  C62.349,56.127,62.045,56.231,61.825,56.448z M66.327,59.217c0.483,0.488,0.48,1.278-0.007,1.762  c-0.235,0.233-0.547,0.361-0.878,0.361c-0.002,0-0.003,0-0.005,0c-0.333-0.001-0.645-0.132-0.879-0.368  c-0.25-0.252-0.583-1.337-0.825-2.601C64.995,58.624,66.077,58.965,66.327,59.217z"></path><path d="M46.136,73.818c0.004,0,0.009,0,0.013,0c0.862,0,1.673-0.334,2.285-0.941c0.615-0.61,0.957-1.424,0.96-2.291  c0.004-0.867-0.331-1.684-0.941-2.299c-1.034-1.042-4.155-1.521-5.087-1.642c-0.309-0.041-0.614,0.064-0.834,0.281  c-0.22,0.218-0.326,0.524-0.288,0.831c0.114,0.934,0.567,4.06,1.603,5.102C44.455,73.475,45.269,73.815,46.136,73.818z   M47.032,69.695c0.234,0.236,0.363,0.55,0.361,0.883c-0.001,0.332-0.132,0.645-0.368,0.879c-0.235,0.233-0.546,0.361-0.877,0.361  c-0.002,0-0.004,0-0.005,0c-0.333-0.001-0.645-0.132-0.879-0.368c0,0,0,0-0.001-0.001c-0.25-0.252-0.582-1.336-0.825-2.6  C45.7,69.103,46.782,69.443,47.032,69.695z"></path></svg>